<svg width="32" height="32" viewBox="0 0 32 32" fill="none" xmlns="http://www.w3.org/2000/svg">
<path d="M6.66665 28C6.28887 28 5.97198 27.872 5.71598 27.616C5.46087 27.3609 5.33331 27.0444 5.33331 26.6667V25.3333C4.2222 25.3333 3.27776 24.9444 2.49998 24.1667C1.7222 23.3889 1.33331 22.4444 1.33331 21.3333V14.6667C1.33331 13.9333 1.59465 13.3053 2.11731 12.7827C2.63909 12.2609 3.26665 12 3.99998 12C4.73331 12 5.36087 12.2609 5.88265 12.7827C6.40531 13.3053 6.66665 13.9333 6.66665 14.6667V20H25.3333V14.6667C25.3333 13.9333 25.5942 13.3053 26.116 12.7827C26.6386 12.2609 27.2666 12 28 12C28.7333 12 29.3613 12.2609 29.884 12.7827C30.4058 13.3053 30.6666 13.9333 30.6666 14.6667V21.3333C30.6666 22.4444 30.2778 23.3889 29.5 24.1667C28.7222 24.9444 27.7778 25.3333 26.6666 25.3333V26.6667C26.6666 27.0444 26.5386 27.3609 26.2826 27.616C26.0275 27.872 25.7111 28 25.3333 28C24.9555 28 24.6391 27.872 24.384 27.616C24.128 27.3609 24 27.0444 24 26.6667V25.3333H7.99998V26.6667C7.99998 27.0444 7.87242 27.3609 7.61731 27.616C7.36131 27.872 7.04442 28 6.66665 28ZM9.33331 17.3333V14.6667C9.33331 13.4444 8.96087 12.3498 8.21598 11.3827C7.47198 10.4164 6.51109 9.73333 5.33331 9.33333V8C5.33331 6.88889 5.7222 5.94444 6.49998 5.16667C7.27776 4.38889 8.2222 4 9.33331 4H22.6666C23.7778 4 24.7222 4.38889 25.5 5.16667C26.2778 5.94444 26.6666 6.88889 26.6666 8V9.33333C25.4666 9.64444 24.5 10.2942 23.7666 11.2827C23.0333 12.272 22.6666 13.4 22.6666 14.6667V17.3333H9.33331Z" fill="#3B59F4"/>
</svg>
