<svg width="469" height="660" viewBox="0 0 469 660" fill="none" xmlns="http://www.w3.org/2000/svg">
<path fill-rule="evenodd" clip-rule="evenodd" d="M0 24C0 10.7452 10.7452 0 24 0H445C458.255 0 469 10.7452 469 24V239C464.029 239 460 243.029 460 248C460 252.971 464.029 257 469 257V520C464.029 520 460 524.029 460 529C460 533.971 464.029 538 469 538V636C469 649.255 458.255 660 445 660H24C10.7452 660 0 649.255 0 636V538C4.97056 538 9 533.971 9 529C9 524.029 4.97056 520 0 520V257C4.97056 257 9 252.971 9 248C9 243.029 4.97056 239 0 239V24Z" fill="white"/>
</svg>
