<svg width="421" height="4" viewBox="0 0 421 4" fill="none" xmlns="http://www.w3.org/2000/svg">
<path opacity="0.3" fill-rule="evenodd" clip-rule="evenodd" d="M3.50833 3.5L0 3.5L2.62268e-07 0.5L3.50833 0.5C4.33676 0.5 5.00833 1.17157 5.00833 2C5.00833 2.82843 4.33676 3.5 3.50833 3.5ZM9.025 2C9.025 1.17157 9.69657 0.500001 10.525 0.500001L17.5417 0.500002C18.3701 0.500002 19.0417 1.17157 19.0417 2C19.0417 2.82843 18.3701 3.5 17.5417 3.5L10.525 3.5C9.69657 3.5 9.025 2.82843 9.025 2ZM23.0583 2C23.0583 1.17157 23.7299 0.500002 24.5583 0.500002L31.575 0.500003C32.4034 0.500003 33.075 1.17158 33.075 2C33.075 2.82843 32.4034 3.5 31.575 3.5L24.5583 3.5C23.7299 3.5 23.0583 2.82843 23.0583 2ZM37.0917 2C37.0917 1.17158 37.7632 0.500003 38.5917 0.500003L45.6083 0.500004C46.4368 0.500004 47.1083 1.17158 47.1083 2C47.1083 2.82843 46.4368 3.5 45.6083 3.5L38.5917 3.5C37.7632 3.5 37.0917 2.82843 37.0917 2ZM51.125 2C51.125 1.17158 51.7966 0.500005 52.625 0.500005L59.6417 0.500005C60.4701 0.500005 61.1417 1.17158 61.1417 2.00001C61.1417 2.82843 60.4701 3.50001 59.6417 3.50001L52.625 3.5C51.7966 3.5 51.125 2.82843 51.125 2ZM65.1583 2.00001C65.1583 1.17158 65.8299 0.500006 66.6583 0.500006L73.675 0.500006C74.5034 0.500007 75.175 1.17158 75.175 2.00001C75.175 2.82843 74.5034 3.50001 73.675 3.50001L66.6583 3.50001C65.8299 3.50001 65.1583 2.82843 65.1583 2.00001ZM79.1917 2.00001C79.1917 1.17158 79.8632 0.500007 80.6917 0.500007L87.7083 0.500008C88.5368 0.500008 89.2083 1.17158 89.2083 2.00001C89.2083 2.82843 88.5368 3.50001 87.7083 3.50001L80.6917 3.50001C79.8632 3.50001 79.1917 2.82843 79.1917 2.00001ZM93.225 2.00001C93.225 1.17158 93.8966 0.500008 94.725 0.500008L101.742 0.500009C102.57 0.500009 103.242 1.17158 103.242 2.00001C103.242 2.82844 102.57 3.50001 101.742 3.50001L94.725 3.50001C93.8966 3.50001 93.225 2.82844 93.225 2.00001ZM107.258 2.00001C107.258 1.17158 107.93 0.500009 108.758 0.50001L115.775 0.50001C116.603 0.50001 117.275 1.17158 117.275 2.00001C117.275 2.82844 116.603 3.50001 115.775 3.50001L108.758 3.50001C107.93 3.50001 107.258 2.82844 107.258 2.00001ZM121.292 2.00001C121.292 1.17158 121.963 0.500011 122.792 0.500011L129.808 0.500011C130.637 0.500011 131.308 1.17158 131.308 2.00001C131.308 2.82844 130.637 3.50001 129.808 3.50001L122.792 3.50001C121.963 3.50001 121.292 2.82844 121.292 2.00001ZM135.325 2.00001C135.325 1.17158 135.997 0.500012 136.825 0.500012L143.842 0.500013C144.67 0.500013 145.342 1.17159 145.342 2.00001C145.342 2.82844 144.67 3.50001 143.842 3.50001L136.825 3.50001C135.997 3.50001 135.325 2.82844 135.325 2.00001ZM149.358 2.00001C149.358 1.17159 150.03 0.500013 150.858 0.500013L157.875 0.500014C158.703 0.500014 159.375 1.17159 159.375 2.00001C159.375 2.82844 158.703 3.50001 157.875 3.50001L150.858 3.50001C150.03 3.50001 149.358 2.82844 149.358 2.00001ZM163.392 2.00001C163.392 1.17159 164.063 0.500014 164.892 0.500014L171.908 0.500015C172.737 0.500015 173.408 1.17159 173.408 2.00002C173.408 2.82844 172.737 3.50002 171.908 3.50002L164.892 3.50001C164.063 3.50001 163.392 2.82844 163.392 2.00001ZM177.425 2.00002C177.425 1.17159 178.097 0.500016 178.925 0.500016L185.942 0.500016C186.77 0.500016 187.442 1.17159 187.442 2.00002C187.442 2.82844 186.77 3.50002 185.942 3.50002L178.925 3.50002C178.097 3.50002 177.425 2.82844 177.425 2.00002ZM191.458 2.00002C191.458 1.17159 192.13 0.500017 192.958 0.500017L199.975 0.500017C200.803 0.500018 201.475 1.17159 201.475 2.00002C201.475 2.82844 200.803 3.50002 199.975 3.50002L192.958 3.50002C192.13 3.50002 191.458 2.82844 191.458 2.00002ZM205.492 2.00002C205.492 1.17159 206.163 0.500018 206.992 0.500018L214.008 0.500019C214.837 0.500019 215.508 1.17159 215.508 2.00002C215.508 2.82845 214.837 3.50002 214.008 3.50002L206.992 3.50002C206.163 3.50002 205.492 2.82845 205.492 2.00002ZM219.525 2.00002C219.525 1.17159 220.197 0.500019 221.025 0.500019L228.042 0.50002C228.87 0.50002 229.542 1.17159 229.542 2.00002C229.542 2.82845 228.87 3.50002 228.042 3.50002L221.025 3.50002C220.197 3.50002 219.525 2.82845 219.525 2.00002ZM233.558 2.00002C233.558 1.17159 234.23 0.50002 235.058 0.500021L242.075 0.500021C242.903 0.500021 243.575 1.17159 243.575 2.00002C243.575 2.82845 242.903 3.50002 242.075 3.50002L235.058 3.50002C234.23 3.50002 233.558 2.82845 233.558 2.00002ZM247.592 2.00002C247.592 1.17159 248.263 0.500022 249.092 0.500022L256.108 0.500022C256.937 0.500022 257.608 1.1716 257.608 2.00002C257.608 2.82845 256.937 3.50002 256.108 3.50002L249.092 3.50002C248.263 3.50002 247.592 2.82845 247.592 2.00002ZM261.625 2.00002C261.625 1.1716 262.297 0.500023 263.125 0.500023L270.142 0.500024C270.97 0.500024 271.642 1.1716 271.642 2.00002C271.642 2.82845 270.97 3.50002 270.142 3.50002L263.125 3.50002C262.297 3.50002 261.625 2.82845 261.625 2.00002ZM275.658 2.00002C275.658 1.1716 276.33 0.500024 277.158 0.500024L284.175 0.500025C285.003 0.500025 285.675 1.1716 285.675 2.00002C285.675 2.82845 285.003 3.50002 284.175 3.50002L277.158 3.50002C276.33 3.50002 275.658 2.82845 275.658 2.00002ZM289.692 2.00003C289.692 1.1716 290.363 0.500025 291.192 0.500025L298.208 0.500026C299.037 0.500026 299.708 1.1716 299.708 2.00003C299.708 2.82845 299.037 3.50003 298.208 3.50003L291.192 3.50003C290.363 3.50003 289.692 2.82845 289.692 2.00003ZM303.725 2.00003C303.725 1.1716 304.397 0.500027 305.225 0.500027L312.242 0.500027C313.07 0.500027 313.742 1.1716 313.742 2.00003C313.742 2.82845 313.07 3.50003 312.242 3.50003L305.225 3.50003C304.397 3.50003 303.725 2.82845 303.725 2.00003ZM317.758 2.00003C317.758 1.1716 318.43 0.500028 319.258 0.500028L326.275 0.500029C327.103 0.500029 327.775 1.1716 327.775 2.00003C327.775 2.82846 327.103 3.50003 326.275 3.50003L319.258 3.50003C318.43 3.50003 317.758 2.82845 317.758 2.00003ZM331.792 2.00003C331.792 1.1716 332.463 0.500029 333.292 0.500029L340.308 0.50003C341.137 0.50003 341.808 1.1716 341.808 2.00003C341.808 2.82846 341.137 3.50003 340.308 3.50003L333.292 3.50003C332.463 3.50003 331.792 2.82846 331.792 2.00003ZM345.825 2.00003C345.825 1.1716 346.496 0.50003 347.325 0.50003L354.342 0.500031C355.17 0.500031 355.842 1.1716 355.842 2.00003C355.842 2.82846 355.17 3.50003 354.342 3.50003L347.325 3.50003C346.496 3.50003 345.825 2.82846 345.825 2.00003ZM359.858 2.00003C359.858 1.1716 360.53 0.500032 361.358 0.500032L368.375 0.500032C369.203 0.500032 369.875 1.17161 369.875 2.00003C369.875 2.82846 369.203 3.50003 368.375 3.50003L361.358 3.50003C360.53 3.50003 359.858 2.82846 359.858 2.00003ZM373.892 2.00003C373.892 1.17161 374.563 0.500033 375.392 0.500033L382.408 0.500033C383.237 0.500034 383.908 1.17161 383.908 2.00003C383.908 2.82846 383.237 3.50003 382.408 3.50003L375.392 3.50003C374.563 3.50003 373.892 2.82846 373.892 2.00003ZM387.925 2.00003C387.925 1.17161 388.596 0.500034 389.425 0.500034L396.442 0.500035C397.27 0.500035 397.942 1.17161 397.942 2.00003C397.942 2.82846 397.27 3.50003 396.442 3.50003L389.425 3.50003C388.596 3.50003 387.925 2.82846 387.925 2.00003ZM401.958 2.00004C401.958 1.17161 402.63 0.500035 403.458 0.500035L410.475 0.500036C411.303 0.500036 411.975 1.17161 411.975 2.00004C411.975 2.82846 411.303 3.50004 410.475 3.50004L403.458 3.50004C402.63 3.50004 401.958 2.82846 401.958 2.00004ZM415.992 2.00004C415.992 1.17161 416.663 0.500036 417.492 0.500036L421 0.500037L421 3.50004L417.492 3.50004C416.663 3.50004 415.992 2.82846 415.992 2.00004Z" fill="#081118"/>
</svg>
