<svg width="145" height="18" viewBox="0 0 145 18" fill="none" xmlns="http://www.w3.org/2000/svg">
<path d="M18.7163 12.0726C18.2524 14.1048 17.2286 15.6048 15.6449 16.5726C14.0612 17.5242 12.0296 18 9.5501 18C8.0464 18 6.70267 17.7984 5.5189 17.3952C4.33514 16.9919 3.33534 16.4194 2.5195 15.6774C1.70366 14.9194 1.07979 14 0.647871 12.9194C0.215957 11.8387 0 10.621 0 9.26613V8.83065C0 7.42742 0.215957 6.17742 0.647871 5.08065C1.07979 3.98387 1.70366 3.06452 2.5195 2.32258C3.33534 1.56452 4.33514 0.991936 5.5189 0.60484C6.70267 0.201613 8.0464 0 9.5501 0C10.8298 0 11.9896 0.129033 13.0294 0.387098C14.0852 0.645162 14.997 1.04032 15.7649 1.57258C16.5487 2.08871 17.1886 2.74194 17.6845 3.53226C18.1804 4.32258 18.5083 5.25 18.6683 6.31452H16.0768C15.9168 5.68549 15.6449 5.1129 15.261 4.59678C14.893 4.06452 14.4291 3.6129 13.8692 3.24194C13.3254 2.85484 12.6855 2.56452 11.9496 2.37097C11.2298 2.16129 10.4299 2.05645 9.5501 2.05645C8.38234 2.05645 7.35854 2.23387 6.47871 2.58871C5.59889 2.92742 4.86303 3.40323 4.27115 4.01613C3.67927 4.62903 3.23136 5.37097 2.92742 6.24194C2.63948 7.09678 2.4955 8.04032 2.4955 9.07258C2.4955 10.0565 2.63948 10.9677 2.92742 11.8065C3.23136 12.6452 3.67927 13.371 4.27115 13.9839C4.86303 14.5968 5.59889 15.0806 6.47871 15.4355C7.35854 15.7742 8.38234 15.9436 9.5501 15.9436C11.3258 15.9436 12.7895 15.6048 13.9412 14.9274C15.109 14.2339 15.8529 13.2823 16.1728 12.0726H18.7163Z" fill="white"/>
<path d="M20.4044 8.83065C20.4524 7.29839 20.7163 5.97581 21.1962 4.8629C21.6921 3.75 22.364 2.83871 23.2118 2.12903C24.0757 1.40323 25.0915 0.870969 26.2592 0.532258C27.443 0.177419 28.7547 0 30.1944 0C31.6342 0 32.9379 0.185484 34.1057 0.556452C35.2894 0.911291 36.3052 1.45161 37.1531 2.17742C38.0169 2.90323 38.6888 3.82258 39.1687 4.93549C39.6646 6.03226 39.9365 7.33065 39.9845 8.83065V9.26613C39.9365 10.7661 39.6646 12.0726 39.1687 13.1855C38.6888 14.2823 38.0169 15.1855 37.1531 15.8952C36.3052 16.6048 35.2894 17.129 34.1057 17.4677C32.9379 17.8226 31.6342 18 30.1944 18C28.7547 18 27.443 17.8226 26.2592 17.4677C25.0915 17.129 24.0757 16.6048 23.2118 15.8952C22.364 15.1694 21.6921 14.2581 21.1962 13.1613C20.7163 12.0645 20.4524 10.7661 20.4044 9.26613V8.83065ZM30.1944 2.12903C29.0907 2.12903 28.0829 2.27419 27.171 2.56452C26.2752 2.85484 25.5074 3.29032 24.8675 3.87097C24.2436 4.43548 23.7557 5.15323 23.4038 6.02419C23.0679 6.87903 22.8999 7.8871 22.8999 9.04839C22.8999 10.1613 23.0679 11.1452 23.4038 12C23.7557 12.8387 24.2436 13.5484 24.8675 14.129C25.5074 14.6935 26.2752 15.129 27.171 15.4355C28.0829 15.7258 29.0907 15.871 30.1944 15.871C31.2982 15.871 32.298 15.7258 33.1938 15.4355C34.1057 15.1452 34.8735 14.7177 35.4974 14.1532C36.1373 13.5726 36.6252 12.8629 36.9611 12.0242C37.313 11.1694 37.489 10.1774 37.489 9.04839C37.489 7.93549 37.313 6.95161 36.9611 6.09677C36.6252 5.24194 36.1373 4.52419 35.4974 3.94355C34.8735 3.34678 34.1057 2.89516 33.1938 2.58871C32.298 2.28226 31.2982 2.12903 30.1944 2.12903Z" fill="white"/>
<path d="M44.735 2.10484V17.4677H42.3835V0.532258H46.4866L57.3805 15.8952V0.532258H59.708V17.4677H55.5808L44.735 2.10484Z" fill="white"/>
<path d="M81.0711 12.0726C80.6072 14.1048 79.5834 15.6048 77.9997 16.5726C76.416 17.5242 74.3844 18 71.9049 18C70.4012 18 69.0575 17.7984 67.8737 17.3952C66.6899 16.9919 65.6901 16.4194 64.8743 15.6774C64.0585 14.9194 63.4346 14 63.0027 12.9194C62.5708 11.8387 62.3548 10.621 62.3548 9.26613V8.83065C62.3548 7.42742 62.5708 6.17742 63.0027 5.08065C63.4346 3.98387 64.0585 3.06452 64.8743 2.32258C65.6901 1.56452 66.6899 0.991936 67.8737 0.60484C69.0575 0.201613 70.4012 0 71.9049 0C73.1847 0 74.3444 0.129033 75.3842 0.387098C76.44 0.645162 77.3518 1.04032 78.1197 1.57258C78.9035 2.08871 79.5434 2.74194 80.0393 3.53226C80.5352 4.32258 80.8631 5.25 81.0231 6.31452H78.4316C78.2716 5.68549 77.9997 5.1129 77.6158 4.59678C77.2478 4.06452 76.7839 3.6129 76.224 3.24194C75.6802 2.85484 75.0403 2.56452 74.3044 2.37097C73.5846 2.16129 72.7847 2.05645 71.9049 2.05645C70.7371 2.05645 69.7133 2.23387 68.8335 2.58871C67.9537 2.92742 67.2178 3.40323 66.626 4.01613C66.0341 4.62903 65.5862 5.37097 65.2822 6.24194C64.9943 7.09678 64.8503 8.04032 64.8503 9.07258C64.8503 10.0565 64.9943 10.9677 65.2822 11.8065C65.5862 12.6452 66.0341 13.371 66.626 13.9839C67.2178 14.5968 67.9537 15.0806 68.8335 15.4355C69.7133 15.7742 70.7371 15.9436 71.9049 15.9436C73.6806 15.9436 75.1443 15.6048 76.296 14.9274C77.4638 14.2339 78.2077 13.2823 78.5276 12.0726H81.0711Z" fill="white"/>
<path d="M99.7478 15.3387V17.4677H83.719V0.532257H98.956V2.66129H86.0705V7.23387H96.5324V9.3629H86.0705V15.3387H99.7478Z" fill="#3B59F4"/>
<path d="M104.747 11.2742V17.4677H102.395V0.532257H113.601C114.481 0.532257 115.28 0.653225 116 0.89516C116.72 1.12097 117.328 1.46774 117.824 1.93548C118.336 2.3871 118.728 2.95968 119 3.65322C119.288 4.34677 119.432 5.15323 119.432 6.07258C119.384 7.42742 119.056 8.5 118.448 9.29032C117.856 10.0806 117.032 10.6371 115.976 10.9597L119.696 17.4435H116.936L113.457 11.2742H104.747ZM104.747 9.14516H112.809C114.201 9.14516 115.232 8.87097 115.904 8.32258C116.592 7.77419 116.936 6.97581 116.936 5.92742C116.936 4.89516 116.616 4.09677 115.976 3.53226C115.336 2.95161 114.369 2.66129 113.073 2.66129H104.747V9.14516Z" fill="#3B59F4"/>
<path d="M131.185 2.66129V17.4677H128.833V2.66129H121.371V0.532257H138.671V2.66129H131.185Z" fill="#3B59F4"/>
<path d="M145 13.9597V17.9032H141.065V13.9597H145Z" fill="#3B59F4"/>
</svg>
