<svg width="40" height="40" viewBox="0 0 40 40" fill="none" xmlns="http://www.w3.org/2000/svg">
<path d="M12.5 20V10C12.5 8.01088 13.2902 6.10322 14.6967 4.6967C16.1032 3.29018 18.0109 2.5 20 2.5C21.9891 2.5 23.8968 3.29018 25.3033 4.6967C26.7098 6.10322 27.5 8.01088 27.5 10V20C27.5 21.9891 26.7098 23.8968 25.3033 25.3033C23.8968 26.7098 21.9891 27.5 20 27.5C18.0109 27.5 16.1032 26.7098 14.6967 25.3033C13.2902 23.8968 12.5 21.9891 12.5 20ZM32.5 20C32.5 19.6685 32.3683 19.3505 32.1339 19.1161C31.8995 18.8817 31.5815 18.75 31.25 18.75C30.9185 18.75 30.6005 18.8817 30.3661 19.1161C30.1317 19.3505 30 19.6685 30 20C30 22.6522 28.9464 25.1957 27.0711 27.0711C25.1957 28.9464 22.6522 30 20 30C17.3478 30 14.8043 28.9464 12.9289 27.0711C11.0536 25.1957 10 22.6522 10 20C10 19.6685 9.8683 19.3505 9.63388 19.1161C9.39946 18.8817 9.08152 18.75 8.75 18.75C8.41848 18.75 8.10054 18.8817 7.86612 19.1161C7.6317 19.3505 7.5 19.6685 7.5 20C7.50381 23.0977 8.65613 26.084 10.7341 28.3813C12.8121 30.6787 15.6682 32.1239 18.75 32.4375V36.25C18.75 36.5815 18.8817 36.8995 19.1161 37.1339C19.3505 37.3683 19.6685 37.5 20 37.5C20.3315 37.5 20.6495 37.3683 20.8839 37.1339C21.1183 36.8995 21.25 36.5815 21.25 36.25V32.4375C24.3318 32.1239 27.1879 30.6787 29.2659 28.3813C31.3439 26.084 32.4962 23.0977 32.5 20Z" fill="#FED02C"/>
</svg>
