<svg width="100" height="100" viewBox="0 0 100 100" fill="none" xmlns="http://www.w3.org/2000/svg">
<path d="M0 0H4.7619V4.7619H0V0ZM4.7619 0H9.52381V4.7619H4.7619V0ZM9.52381 0H14.2857V4.7619H9.52381V0ZM14.2857 0H19.0476V4.7619H14.2857V0ZM19.0476 0H23.8095V4.7619H19.0476V0ZM23.8095 0H28.5714V4.7619H23.8095V0ZM28.5714 0H33.3333V4.7619H28.5714V0ZM47.619 0H52.381V4.7619H47.619V0ZM52.381 0H57.1429V4.7619H52.381V0ZM57.1429 0H61.9048V4.7619H57.1429V0ZM66.6667 0H71.4286V4.7619H66.6667V0ZM71.4286 0H76.1905V4.7619H71.4286V0ZM76.1905 0H80.9524V4.7619H76.1905V0ZM80.9524 0H85.7143V4.7619H80.9524V0ZM85.7143 0H90.4762V4.7619H85.7143V0ZM90.4762 0H95.2381V4.7619H90.4762V0ZM95.2381 0H100V4.7619H95.2381V0ZM0 4.7619H4.7619V9.52381H0V4.7619ZM28.5714 4.7619H33.3333V9.52381H28.5714V4.7619ZM42.8571 4.7619H47.619V9.52381H42.8571V4.7619ZM47.619 4.7619H52.381V9.52381H47.619V4.7619ZM52.381 4.7619H57.1429V9.52381H52.381V4.7619ZM66.6667 4.7619H71.4286V9.52381H66.6667V4.7619ZM95.2381 4.7619H100V9.52381H95.2381V4.7619ZM0 9.52381H4.7619V14.2857H0V9.52381ZM9.52381 9.52381H14.2857V14.2857H9.52381V9.52381ZM14.2857 9.52381H19.0476V14.2857H14.2857V9.52381ZM19.0476 9.52381H23.8095V14.2857H19.0476V9.52381ZM28.5714 9.52381H33.3333V14.2857H28.5714V9.52381ZM38.0952 9.52381H42.8571V14.2857H38.0952V9.52381ZM42.8571 9.52381H47.619V14.2857H42.8571V9.52381ZM47.619 9.52381H52.381V14.2857H47.619V9.52381ZM52.381 9.52381H57.1429V14.2857H52.381V9.52381ZM66.6667 9.52381H71.4286V14.2857H66.6667V9.52381ZM76.1905 9.52381H80.9524V14.2857H76.1905V9.52381ZM80.9524 9.52381H85.7143V14.2857H80.9524V9.52381ZM85.7143 9.52381H90.4762V14.2857H85.7143V9.52381ZM95.2381 9.52381H100V14.2857H95.2381V9.52381ZM0 14.2857H4.7619V19.0476H0V14.2857ZM9.52381 14.2857H14.2857V19.0476H9.52381V14.2857ZM14.2857 14.2857H19.0476V19.0476H14.2857V14.2857ZM19.0476 14.2857H23.8095V19.0476H19.0476V14.2857ZM28.5714 14.2857H33.3333V19.0476H28.5714V14.2857ZM42.8571 14.2857H47.619V19.0476H42.8571V14.2857ZM66.6667 14.2857H71.4286V19.0476H66.6667V14.2857ZM76.1905 14.2857H80.9524V19.0476H76.1905V14.2857ZM80.9524 14.2857H85.7143V19.0476H80.9524V14.2857ZM85.7143 14.2857H90.4762V19.0476H85.7143V14.2857ZM95.2381 14.2857H100V19.0476H95.2381V14.2857ZM0 19.0476H4.7619V23.8095H0V19.0476ZM9.52381 19.0476H14.2857V23.8095H9.52381V19.0476ZM14.2857 19.0476H19.0476V23.8095H14.2857V19.0476ZM19.0476 19.0476H23.8095V23.8095H19.0476V19.0476ZM28.5714 19.0476H33.3333V23.8095H28.5714V19.0476ZM38.0952 19.0476H42.8571V23.8095H38.0952V19.0476ZM42.8571 19.0476H47.619V23.8095H42.8571V19.0476ZM47.619 19.0476H52.381V23.8095H47.619V19.0476ZM52.381 19.0476H57.1429V23.8095H52.381V19.0476ZM57.1429 19.0476H61.9048V23.8095H57.1429V19.0476ZM66.6667 19.0476H71.4286V23.8095H66.6667V19.0476ZM76.1905 19.0476H80.9524V23.8095H76.1905V19.0476ZM80.9524 19.0476H85.7143V23.8095H80.9524V19.0476ZM85.7143 19.0476H90.4762V23.8095H85.7143V19.0476ZM95.2381 19.0476H100V23.8095H95.2381V19.0476ZM0 23.8095H4.7619V28.5714H0V23.8095ZM28.5714 23.8095H33.3333V28.5714H28.5714V23.8095ZM38.0952 23.8095H42.8571V28.5714H38.0952V23.8095ZM47.619 23.8095H52.381V28.5714H47.619V23.8095ZM52.381 23.8095H57.1429V28.5714H52.381V23.8095ZM57.1429 23.8095H61.9048V28.5714H57.1429V23.8095ZM66.6667 23.8095H71.4286V28.5714H66.6667V23.8095ZM95.2381 23.8095H100V28.5714H95.2381V23.8095ZM0 28.5714H4.7619V33.3333H0V28.5714ZM4.7619 28.5714H9.52381V33.3333H4.7619V28.5714ZM9.52381 28.5714H14.2857V33.3333H9.52381V28.5714ZM14.2857 28.5714H19.0476V33.3333H14.2857V28.5714ZM19.0476 28.5714H23.8095V33.3333H19.0476V28.5714ZM23.8095 28.5714H28.5714V33.3333H23.8095V28.5714ZM28.5714 28.5714H33.3333V33.3333H28.5714V28.5714ZM38.0952 28.5714H42.8571V33.3333H38.0952V28.5714ZM47.619 28.5714H52.381V33.3333H47.619V28.5714ZM57.1429 28.5714H61.9048V33.3333H57.1429V28.5714ZM66.6667 28.5714H71.4286V33.3333H66.6667V28.5714ZM71.4286 28.5714H76.1905V33.3333H71.4286V28.5714ZM76.1905 28.5714H80.9524V33.3333H76.1905V28.5714ZM80.9524 28.5714H85.7143V33.3333H80.9524V28.5714ZM85.7143 28.5714H90.4762V33.3333H85.7143V28.5714ZM90.4762 28.5714H95.2381V33.3333H90.4762V28.5714ZM95.2381 28.5714H100V33.3333H95.2381V28.5714ZM52.381 33.3333H57.1429V38.0952H52.381V33.3333ZM57.1429 33.3333H61.9048V38.0952H57.1429V33.3333ZM4.7619 38.0952H9.52381V42.8571H4.7619V38.0952ZM19.0476 38.0952H23.8095V42.8571H19.0476V38.0952ZM28.5714 38.0952H33.3333V42.8571H28.5714V38.0952ZM38.0952 38.0952H42.8571V42.8571H38.0952V38.0952ZM42.8571 38.0952H47.619V42.8571H42.8571V38.0952ZM47.619 38.0952H52.381V42.8571H47.619V38.0952ZM61.9048 38.0952H66.6667V42.8571H61.9048V38.0952ZM71.4286 38.0952H76.1905V42.8571H71.4286V38.0952ZM76.1905 38.0952H80.9524V42.8571H76.1905V38.0952ZM85.7143 38.0952H90.4762V42.8571H85.7143V38.0952ZM0 42.8571H4.7619V47.619H0V42.8571ZM4.7619 42.8571H9.52381V47.619H4.7619V42.8571ZM14.2857 42.8571H19.0476V47.619H14.2857V42.8571ZM19.0476 42.8571H23.8095V47.619H19.0476V42.8571ZM33.3333 42.8571H38.0952V47.619H33.3333V42.8571ZM38.0952 42.8571H42.8571V47.619H38.0952V42.8571ZM42.8571 42.8571H47.619V47.619H42.8571V42.8571ZM47.619 42.8571H52.381V47.619H47.619V42.8571ZM52.381 42.8571H57.1429V47.619H52.381V42.8571ZM57.1429 42.8571H61.9048V47.619H57.1429V42.8571ZM61.9048 42.8571H66.6667V47.619H61.9048V42.8571ZM66.6667 42.8571H71.4286V47.619H66.6667V42.8571ZM76.1905 42.8571H80.9524V47.619H76.1905V42.8571ZM80.9524 42.8571H85.7143V47.619H80.9524V42.8571ZM85.7143 42.8571H90.4762V47.619H85.7143V42.8571ZM90.4762 42.8571H95.2381V47.619H90.4762V42.8571ZM0 47.619H4.7619V52.381H0V47.619ZM4.7619 47.619H9.52381V52.381H4.7619V47.619ZM14.2857 47.619H19.0476V52.381H14.2857V47.619ZM23.8095 47.619H28.5714V52.381H23.8095V47.619ZM28.5714 47.619H33.3333V52.381H28.5714V47.619ZM33.3333 47.619H38.0952V52.381H33.3333V47.619ZM52.381 47.619H57.1429V52.381H52.381V47.619ZM57.1429 47.619H61.9048V52.381H57.1429V47.619ZM61.9048 47.619H66.6667V52.381H61.9048V47.619ZM76.1905 47.619H80.9524V52.381H76.1905V47.619ZM90.4762 47.619H95.2381V52.381H90.4762V47.619ZM0 52.381H4.7619V57.1429H0V52.381ZM4.7619 52.381H9.52381V57.1429H4.7619V52.381ZM14.2857 52.381H19.0476V57.1429H14.2857V52.381ZM19.0476 52.381H23.8095V57.1429H19.0476V52.381ZM23.8095 52.381H28.5714V57.1429H23.8095V52.381ZM42.8571 52.381H47.619V57.1429H42.8571V52.381ZM47.619 52.381H52.381V57.1429H47.619V52.381ZM61.9048 52.381H66.6667V57.1429H61.9048V52.381ZM71.4286 52.381H76.1905V57.1429H71.4286V52.381ZM76.1905 52.381H80.9524V57.1429H76.1905V52.381ZM90.4762 52.381H95.2381V57.1429H90.4762V52.381ZM95.2381 52.381H100V57.1429H95.2381V52.381ZM0 57.1429H4.7619V61.9048H0V57.1429ZM4.7619 57.1429H9.52381V61.9048H4.7619V57.1429ZM14.2857 57.1429H19.0476V61.9048H14.2857V57.1429ZM28.5714 57.1429H33.3333V61.9048H28.5714V57.1429ZM33.3333 57.1429H38.0952V61.9048H33.3333V57.1429ZM38.0952 57.1429H42.8571V61.9048H38.0952V57.1429ZM42.8571 57.1429H47.619V61.9048H42.8571V57.1429ZM47.619 57.1429H52.381V61.9048H47.619V57.1429ZM57.1429 57.1429H61.9048V61.9048H57.1429V57.1429ZM76.1905 57.1429H80.9524V61.9048H76.1905V57.1429ZM80.9524 57.1429H85.7143V61.9048H80.9524V57.1429ZM90.4762 57.1429H95.2381V61.9048H90.4762V57.1429ZM38.0952 61.9048H42.8571V66.6667H38.0952V61.9048ZM57.1429 61.9048H61.9048V66.6667H57.1429V61.9048ZM61.9048 61.9048H66.6667V66.6667H61.9048V61.9048ZM66.6667 61.9048H71.4286V66.6667H66.6667V61.9048ZM80.9524 61.9048H85.7143V66.6667H80.9524V61.9048ZM85.7143 61.9048H90.4762V66.6667H85.7143V61.9048ZM90.4762 61.9048H95.2381V66.6667H90.4762V61.9048ZM95.2381 61.9048H100V66.6667H95.2381V61.9048ZM0 66.6667H4.7619V71.4286H0V66.6667ZM4.7619 66.6667H9.52381V71.4286H4.7619V66.6667ZM9.52381 66.6667H14.2857V71.4286H9.52381V66.6667ZM14.2857 66.6667H19.0476V71.4286H14.2857V66.6667ZM19.0476 66.6667H23.8095V71.4286H19.0476V66.6667ZM23.8095 66.6667H28.5714V71.4286H23.8095V66.6667ZM28.5714 66.6667H33.3333V71.4286H28.5714V66.6667ZM42.8571 66.6667H47.619V71.4286H42.8571V66.6667ZM47.619 66.6667H52.381V71.4286H47.619V66.6667ZM66.6667 66.6667H71.4286V71.4286H66.6667V66.6667ZM76.1905 66.6667H80.9524V71.4286H76.1905V66.6667ZM80.9524 66.6667H85.7143V71.4286H80.9524V66.6667ZM85.7143 66.6667H90.4762V71.4286H85.7143V66.6667ZM90.4762 66.6667H95.2381V71.4286H90.4762V66.6667ZM0 71.4286H4.7619V76.1905H0V71.4286ZM28.5714 71.4286H33.3333V76.1905H28.5714V71.4286ZM52.381 71.4286H57.1429V76.1905H52.381V71.4286ZM61.9048 71.4286H66.6667V76.1905H61.9048V71.4286ZM71.4286 71.4286H76.1905V76.1905H71.4286V71.4286ZM76.1905 71.4286H80.9524V76.1905H76.1905V71.4286ZM95.2381 71.4286H100V76.1905H95.2381V71.4286ZM0 76.1905H4.7619V80.9524H0V76.1905ZM9.52381 76.1905H14.2857V80.9524H9.52381V76.1905ZM14.2857 76.1905H19.0476V80.9524H14.2857V76.1905ZM19.0476 76.1905H23.8095V80.9524H19.0476V76.1905ZM28.5714 76.1905H33.3333V80.9524H28.5714V76.1905ZM38.0952 76.1905H42.8571V80.9524H38.0952V76.1905ZM42.8571 76.1905H47.619V80.9524H42.8571V76.1905ZM47.619 76.1905H52.381V80.9524H47.619V76.1905ZM52.381 76.1905H57.1429V80.9524H52.381V76.1905ZM90.4762 76.1905H95.2381V80.9524H90.4762V76.1905ZM0 80.9524H4.7619V85.7143H0V80.9524ZM9.52381 80.9524H14.2857V85.7143H9.52381V80.9524ZM14.2857 80.9524H19.0476V85.7143H14.2857V80.9524ZM19.0476 80.9524H23.8095V85.7143H19.0476V80.9524ZM28.5714 80.9524H33.3333V85.7143H28.5714V80.9524ZM57.1429 80.9524H61.9048V85.7143H57.1429V80.9524ZM66.6667 80.9524H71.4286V85.7143H66.6667V80.9524ZM76.1905 80.9524H80.9524V85.7143H76.1905V80.9524ZM90.4762 80.9524H95.2381V85.7143H90.4762V80.9524ZM95.2381 80.9524H100V85.7143H95.2381V80.9524ZM0 85.7143H4.7619V90.4762H0V85.7143ZM9.52381 85.7143H14.2857V90.4762H9.52381V85.7143ZM14.2857 85.7143H19.0476V90.4762H14.2857V85.7143ZM19.0476 85.7143H23.8095V90.4762H19.0476V85.7143ZM28.5714 85.7143H33.3333V90.4762H28.5714V85.7143ZM57.1429 85.7143H61.9048V90.4762H57.1429V85.7143ZM71.4286 85.7143H76.1905V90.4762H71.4286V85.7143ZM76.1905 85.7143H80.9524V90.4762H76.1905V85.7143ZM0 90.4762H4.7619V95.2381H0V90.4762ZM28.5714 90.4762H33.3333V95.2381H28.5714V90.4762ZM38.0952 90.4762H42.8571V95.2381H38.0952V90.4762ZM47.619 90.4762H52.381V95.2381H47.619V90.4762ZM52.381 90.4762H57.1429V95.2381H52.381V90.4762ZM57.1429 90.4762H61.9048V95.2381H57.1429V90.4762ZM71.4286 90.4762H76.1905V95.2381H71.4286V90.4762ZM0 95.2381H4.7619V100H0V95.2381ZM4.7619 95.2381H9.52381V100H4.7619V95.2381ZM9.52381 95.2381H14.2857V100H9.52381V95.2381ZM14.2857 95.2381H19.0476V100H14.2857V95.2381ZM19.0476 95.2381H23.8095V100H19.0476V95.2381ZM23.8095 95.2381H28.5714V100H23.8095V95.2381ZM28.5714 95.2381H33.3333V100H28.5714V95.2381ZM47.619 95.2381H52.381V100H47.619V95.2381ZM52.381 95.2381H57.1429V100H52.381V95.2381ZM61.9048 95.2381H66.6667V100H61.9048V95.2381ZM66.6667 95.2381H71.4286V100H66.6667V95.2381ZM71.4286 95.2381H76.1905V100H71.4286V95.2381ZM76.1905 95.2381H80.9524V100H76.1905V95.2381ZM95.2381 95.2381H100V100H95.2381V95.2381Z" fill="#081118"/>
</svg>
