<svg width="236" height="80" viewBox="0 0 236 80" fill="none" xmlns="http://www.w3.org/2000/svg">
<path d="M0 16C0 7.16344 7.16344 0 16 0H220C228.837 0 236 7.16344 236 16V80H0V16Z" fill="#3B59F4"/>
<path d="M126.52 34.4133C124.28 33.2667 121.373 32.3333 118 32.3333C114.627 32.3333 111.72 33.2667 109.48 34.4133C108.829 34.7484 108.284 35.2572 107.905 35.8833C107.527 36.5094 107.328 37.2282 107.333 37.96V39C107.333 40.4667 108.533 41.6667 110 41.6667H126C127.467 41.6667 128.667 40.4667 128.667 39V37.96C128.667 36.4667 127.853 35.0933 126.52 34.4133ZM118 31C120.947 31 123.333 28.6133 123.333 25.6667V21C123.333 19.8933 122.44 19 121.333 19C120.64 19 120.027 19.36 119.667 19.8933C119.307 19.36 118.693 19 118 19C117.307 19 116.693 19.36 116.333 19.8933C115.973 19.36 115.36 19 114.667 19C113.56 19 112.667 19.8933 112.667 21V25.6667C112.667 28.6133 115.053 31 118 31Z" fill="white"/>
<path d="M101.242 59.182C100.299 59.182 99.4967 58.972 98.834 58.552C98.1807 58.1227 97.7233 57.53 97.462 56.774L98.848 55.962C99.24 57.0633 100.052 57.614 101.284 57.614C101.881 57.614 102.334 57.4973 102.642 57.264C102.95 57.0307 103.104 56.718 103.104 56.326C103.104 55.934 102.941 55.6307 102.614 55.416C102.287 55.2013 101.709 54.968 100.878 54.716C100.029 54.464 99.3427 54.1653 98.82 53.82C98.1853 53.372 97.868 52.714 97.868 51.846C97.868 50.978 98.176 50.292 98.792 49.788C99.3987 49.2747 100.141 49.018 101.018 49.018C101.793 49.018 102.474 49.2093 103.062 49.592C103.659 49.9653 104.117 50.4927 104.434 51.174L103.076 51.958C102.665 51.0433 101.979 50.586 101.018 50.586C100.551 50.586 100.178 50.698 99.898 50.922C99.618 51.1367 99.478 51.4307 99.478 51.804C99.478 52.168 99.618 52.4573 99.898 52.672C100.178 52.8773 100.696 53.0967 101.452 53.33C101.919 53.4887 102.189 53.582 102.264 53.61C102.385 53.6473 102.628 53.7407 102.992 53.89C103.291 54.0113 103.529 54.142 103.706 54.282C104.434 54.8513 104.77 55.5233 104.714 56.298C104.714 57.1847 104.392 57.8893 103.748 58.412C103.123 58.9253 102.287 59.182 101.242 59.182ZM104.976 49.2H112.116V50.74H109.358V59H107.748V50.74H104.976V49.2ZM120.729 59H118.993L118.307 57.026H114.135L113.449 59H111.699L115.255 49.2H117.187L120.729 59ZM116.221 51.09L114.667 55.514H117.775L116.221 51.09ZM126.048 53.932H130.948V54.604C130.948 55.948 130.504 57.0493 129.618 57.908C128.74 58.7573 127.583 59.182 126.146 59.182C124.634 59.182 123.383 58.692 122.394 57.712C121.414 56.732 120.924 55.528 120.924 54.1C120.924 52.6813 121.414 51.482 122.394 50.502C123.383 49.5127 124.606 49.018 126.062 49.018C126.967 49.018 127.798 49.228 128.554 49.648C129.319 50.0587 129.912 50.6233 130.332 51.342L128.946 52.14C128.684 51.664 128.297 51.286 127.784 51.006C127.27 50.726 126.696 50.586 126.062 50.586C125.035 50.586 124.19 50.922 123.528 51.594C122.865 52.2753 122.534 53.1153 122.534 54.114C122.534 55.122 122.865 55.9573 123.528 56.62C124.209 57.2827 125.086 57.614 126.16 57.614C127.018 57.614 127.723 57.4133 128.274 57.012C128.824 56.6107 129.174 56.0647 129.324 55.374H126.048V53.932ZM134.029 54.814V57.46H138.369V59H132.419V49.2H138.299V50.74H134.029V53.288H137.949V54.814H134.029Z" fill="white"/>
</svg>
