<svg width="611" height="415" viewBox="0 0 611 415" fill="none" xmlns="http://www.w3.org/2000/svg">
<circle cx="181.5" cy="356.5" r="28.5" fill="#0C1926" fill-opacity="0.2"/>
<rect x="129" y="345" width="18" height="24" rx="4" fill="#3B59F4"/>
<rect x="122" y="348" width="5" height="18" rx="2.5" fill="#3B59F4"/>
<g opacity="0.3">
<rect width="18" height="24" rx="4" transform="matrix(-1 0 0 1 234 345)" fill="#3B59F4"/>
<rect width="5" height="18" rx="2.5" transform="matrix(-1 0 0 1 241 348)" fill="#3B59F4"/>
</g>
<rect x="146.451" y="396.661" width="18" height="24" rx="4" transform="rotate(-60.4644 146.451 396.661)" fill="#3B59F4"/>
<rect x="145.61" y="404.23" width="5" height="18" rx="2.5" transform="rotate(-60.4644 145.61 404.23)" fill="#3B59F4"/>
<g opacity="0.3">
<rect width="18" height="24" rx="4" transform="matrix(-0.55052 -0.834822 -0.834822 0.55052 217.945 394.027)" fill="#3B59F4"/>
<rect width="5" height="18" rx="2.5" transform="matrix(-0.55052 -0.834822 -0.834822 0.55052 219.294 401.522)" fill="#3B59F4"/>
</g>
<g opacity="0.3">
<rect x="163.285" y="306.062" width="18" height="24" rx="4" transform="rotate(60 163.285 306.062)" fill="#3B59F4"/>
<rect x="157.187" y="301.5" width="5" height="18" rx="2.5" transform="rotate(60 157.187 301.5)" fill="#3B59F4"/>
</g>
<rect width="18" height="24" rx="4" transform="matrix(-0.5 0.866025 0.866025 0.5 195 304.062)" fill="#3B59F4"/>
<rect width="5" height="18" rx="2.5" transform="matrix(-0.5 0.866025 0.866025 0.5 201.098 299.5)" fill="#3B59F4"/>
<circle cx="116.5" cy="58.5" r="28.5" fill="#CED1D4"/>
<rect x="64" y="47" width="18" height="24" rx="4" fill="#3B59F4"/>
<rect x="57" y="50" width="5" height="18" rx="2.5" fill="#3B59F4"/>
<rect width="18" height="24" rx="4" transform="matrix(-1 0 0 1 169 47)" fill="#3B59F4"/>
<rect width="5" height="18" rx="2.5" transform="matrix(-1 0 0 1 176 50)" fill="#3B59F4"/>
<rect x="81.4508" y="98.6609" width="18" height="24" rx="4" transform="rotate(-60.4644 81.4508 98.6609)" fill="#3B59F4"/>
<rect x="80.6102" y="106.23" width="5" height="18" rx="2.5" transform="rotate(-60.4644 80.6102 106.23)" fill="#3B59F4"/>
<rect width="18" height="24" rx="4" transform="matrix(-0.55052 -0.834822 -0.834822 0.55052 152.945 96.0269)" fill="#3B59F4"/>
<rect width="5" height="18" rx="2.5" transform="matrix(-0.55052 -0.834822 -0.834822 0.55052 154.294 103.522)" fill="#3B59F4"/>
<rect x="98.2846" y="8.06213" width="18" height="24" rx="4" transform="rotate(60 98.2846 8.06213)" fill="#3B59F4"/>
<rect x="92.1865" y="3.5" width="5" height="18" rx="2.5" transform="rotate(60 92.1865 3.5)" fill="#3B59F4"/>
<rect width="18" height="24" rx="4" transform="matrix(-0.5 0.866025 0.866025 0.5 130 6.06213)" fill="#3B59F4"/>
<rect width="5" height="18" rx="2.5" transform="matrix(-0.5 0.866025 0.866025 0.5 136.098 1.5)" fill="#3B59F4"/>
<circle cx="305.5" cy="58.5" r="28.5" fill="#0C1926" fill-opacity="0.2"/>
<rect x="253" y="47" width="18" height="24" rx="4" fill="#3B59F4"/>
<rect x="246" y="50" width="5" height="18" rx="2.5" fill="#3B59F4"/>
<g opacity="0.3">
<rect width="18" height="24" rx="4" transform="matrix(-1 0 0 1 358 47)" fill="#3B59F4"/>
<rect width="5" height="18" rx="2.5" transform="matrix(-1 0 0 1 365 50)" fill="#3B59F4"/>
</g>
<rect x="270.451" y="98.6609" width="18" height="24" rx="4" transform="rotate(-60.4644 270.451 98.6609)" fill="#3B59F4"/>
<rect x="269.61" y="106.23" width="5" height="18" rx="2.5" transform="rotate(-60.4644 269.61 106.23)" fill="#3B59F4"/>
<g opacity="0.3">
<rect width="18" height="24" rx="4" transform="matrix(-0.55052 -0.834822 -0.834822 0.55052 341.945 96.0269)" fill="#3B59F4"/>
<rect width="5" height="18" rx="2.5" transform="matrix(-0.55052 -0.834822 -0.834822 0.55052 343.294 103.522)" fill="#3B59F4"/>
</g>
<g opacity="0.3">
<rect x="287.285" y="8.06213" width="18" height="24" rx="4" transform="rotate(60 287.285 8.06213)" fill="#3B59F4"/>
<rect x="281.187" y="3.5" width="5" height="18" rx="2.5" transform="rotate(60 281.187 3.5)" fill="#3B59F4"/>
</g>
<rect width="18" height="24" rx="4" transform="matrix(-0.5 0.866025 0.866025 0.5 319 6.06213)" fill="#3B59F4"/>
<rect width="5" height="18" rx="2.5" transform="matrix(-0.5 0.866025 0.866025 0.5 325.098 1.5)" fill="#3B59F4"/>
<circle cx="430.5" cy="356.5" r="28.5" fill="#0C1926" fill-opacity="0.2"/>
<rect x="378" y="345" width="18" height="24" rx="4" fill="#3B59F4"/>
<rect x="371" y="348" width="5" height="18" rx="2.5" fill="#3B59F4"/>
<g opacity="0.3">
<rect width="18" height="24" rx="4" transform="matrix(-1 0 0 1 483 345)" fill="#3B59F4"/>
<rect width="5" height="18" rx="2.5" transform="matrix(-1 0 0 1 490 348)" fill="#3B59F4"/>
</g>
<rect x="395.451" y="396.661" width="18" height="24" rx="4" transform="rotate(-60.4644 395.451 396.661)" fill="#3B59F4"/>
<rect x="394.61" y="404.23" width="5" height="18" rx="2.5" transform="rotate(-60.4644 394.61 404.23)" fill="#3B59F4"/>
<g opacity="0.3">
<rect width="18" height="24" rx="4" transform="matrix(-0.55052 -0.834822 -0.834822 0.55052 466.945 394.027)" fill="#3B59F4"/>
<rect width="5" height="18" rx="2.5" transform="matrix(-0.55052 -0.834822 -0.834822 0.55052 468.294 401.522)" fill="#3B59F4"/>
</g>
<g opacity="0.3">
<rect x="412.285" y="306.062" width="18" height="24" rx="4" transform="rotate(60 412.285 306.062)" fill="#3B59F4"/>
<rect x="406.187" y="301.5" width="5" height="18" rx="2.5" transform="rotate(60 406.187 301.5)" fill="#3B59F4"/>
</g>
<rect width="18" height="24" rx="4" transform="matrix(-0.5 0.866025 0.866025 0.5 444 304.062)" fill="#3B59F4"/>
<rect width="5" height="18" rx="2.5" transform="matrix(-0.5 0.866025 0.866025 0.5 450.098 299.5)" fill="#3B59F4"/>
<circle cx="494.5" cy="58.5" r="28.5" fill="#0C1926" fill-opacity="0.2"/>
<rect x="442" y="47" width="18" height="24" rx="4" fill="#3B59F4"/>
<rect x="435" y="50" width="5" height="18" rx="2.5" fill="#3B59F4"/>
<rect width="18" height="24" rx="4" transform="matrix(-1 0 0 1 547 47)" fill="#0C1926"/>
<rect width="5" height="18" rx="2.5" transform="matrix(-1 0 0 1 554 50)" fill="#0C1926"/>
<rect x="459.451" y="98.6609" width="18" height="24" rx="4" transform="rotate(-60.4644 459.451 98.6609)" fill="#3B59F4"/>
<rect x="458.61" y="106.23" width="5" height="18" rx="2.5" transform="rotate(-60.4644 458.61 106.23)" fill="#3B59F4"/>
<rect width="18" height="24" rx="4" transform="matrix(-0.55052 -0.834822 -0.834822 0.55052 530.945 96.0269)" fill="#0C1926"/>
<rect width="5" height="18" rx="2.5" transform="matrix(-0.55052 -0.834822 -0.834822 0.55052 532.294 103.522)" fill="#0C1926"/>
<rect x="476.285" y="8.06213" width="18" height="24" rx="4" transform="rotate(60 476.285 8.06213)" fill="#0C1926"/>
<rect x="470.187" y="3.5" width="5" height="18" rx="2.5" transform="rotate(60 470.187 3.5)" fill="#0C1926"/>
<rect width="18" height="24" rx="4" transform="matrix(-0.5 0.866025 0.866025 0.5 508 6.06213)" fill="#3B59F4"/>
<rect width="5" height="18" rx="2.5" transform="matrix(-0.5 0.866025 0.866025 0.5 514.098 1.5)" fill="#3B59F4"/>
<rect opacity="0.3" x="31" y="194" width="72" height="26" rx="4" fill="#3B59F4"/>
<rect width="18" height="24" rx="4" transform="matrix(-4.37114e-08 1 1 4.37114e-08 40 170)" fill="#3B59F4"/>
<rect width="5" height="18" rx="2.5" transform="matrix(-4.37114e-08 1 1 4.37114e-08 43 163)" fill="#3B59F4"/>
<rect x="40" y="244" width="18" height="24" rx="4" transform="rotate(-90 40 244)" fill="#3B59F4"/>
<rect x="43" y="251" width="5" height="18" rx="2.5" transform="rotate(-90 43 251)" fill="#3B59F4"/>
<rect width="18" height="24" rx="4" transform="matrix(-4.37114e-08 1 1 4.37114e-08 70 170)" fill="#3B59F4"/>
<rect width="5" height="18" rx="2.5" transform="matrix(-4.37114e-08 1 1 4.37114e-08 73 163)" fill="#3B59F4"/>
<rect x="70" y="244" width="18" height="24" rx="4" transform="rotate(-90 70 244)" fill="#3B59F4"/>
<rect x="73" y="251" width="5" height="18" rx="2.5" transform="rotate(-90 73 251)" fill="#3B59F4"/>
<rect x="127" y="219" width="18" height="24" rx="4" transform="rotate(180 127 219)" fill="#3B59F4"/>
<rect x="134" y="216" width="5" height="18" rx="2.5" transform="rotate(180 134 216)" fill="#3B59F4"/>
<rect width="18" height="24" rx="4" transform="matrix(1 8.74228e-08 8.74228e-08 -1 7 219)" fill="#3B59F4"/>
<rect width="5" height="18" rx="2.5" transform="matrix(1 8.74228e-08 8.74228e-08 -1 0 216)" fill="#3B59F4"/>
<rect x="270" y="194" width="72" height="26" rx="4" fill="#0C1926" fill-opacity="0.2"/>
<rect width="18" height="24" rx="4" transform="matrix(-4.37114e-08 1 1 4.37114e-08 279 170)" fill="#3B59F4"/>
<rect width="5" height="18" rx="2.5" transform="matrix(-4.37114e-08 1 1 4.37114e-08 282 163)" fill="#3B59F4"/>
<rect x="279" y="244" width="18" height="24" rx="4" transform="rotate(-90 279 244)" fill="#3B59F4"/>
<rect x="282" y="251" width="5" height="18" rx="2.5" transform="rotate(-90 282 251)" fill="#3B59F4"/>
<rect width="18" height="24" rx="4" transform="matrix(-4.37114e-08 1 1 4.37114e-08 309 170)" fill="#3B59F4"/>
<rect width="5" height="18" rx="2.5" transform="matrix(-4.37114e-08 1 1 4.37114e-08 312 163)" fill="#3B59F4"/>
<rect x="309" y="244" width="18" height="24" rx="4" transform="rotate(-90 309 244)" fill="#3B59F4"/>
<rect x="312" y="251" width="5" height="18" rx="2.5" transform="rotate(-90 312 251)" fill="#3B59F4"/>
<rect opacity="0.3" x="508" y="194" width="72" height="26" rx="4" fill="#3B59F4"/>
<rect width="18" height="24" rx="4" transform="matrix(-4.37114e-08 1 1 4.37114e-08 517 170)" fill="#3B59F4"/>
<rect width="5" height="18" rx="2.5" transform="matrix(-4.37114e-08 1 1 4.37114e-08 520 163)" fill="#3B59F4"/>
<rect x="517" y="244" width="18" height="24" rx="4" transform="rotate(-90 517 244)" fill="#3B59F4"/>
<rect x="520" y="251" width="5" height="18" rx="2.5" transform="rotate(-90 520 251)" fill="#3B59F4"/>
<rect width="18" height="24" rx="4" transform="matrix(-4.37114e-08 1 1 4.37114e-08 547 170)" fill="#3B59F4"/>
<rect width="5" height="18" rx="2.5" transform="matrix(-4.37114e-08 1 1 4.37114e-08 550 163)" fill="#3B59F4"/>
<rect x="547" y="244" width="18" height="24" rx="4" transform="rotate(-90 547 244)" fill="#3B59F4"/>
<rect x="550" y="251" width="5" height="18" rx="2.5" transform="rotate(-90 550 251)" fill="#3B59F4"/>
<rect x="604" y="219" width="18" height="24" rx="4" transform="rotate(180 604 219)" fill="#3B59F4"/>
<rect x="611" y="216" width="5" height="18" rx="2.5" transform="rotate(180 611 216)" fill="#3B59F4"/>
<rect width="18" height="24" rx="4" transform="matrix(1 8.74228e-08 8.74228e-08 -1 484 219)" fill="#3B59F4"/>
<rect width="5" height="18" rx="2.5" transform="matrix(1 8.74228e-08 8.74228e-08 -1 477 216)" fill="#3B59F4"/>
</svg>
