<svg width="119" height="117" viewBox="0 0 119 117" fill="none" xmlns="http://www.w3.org/2000/svg">
<circle cx="59.5" cy="58.5" r="28.5" fill="#CED1D4"/>
<rect x="7" y="47" width="18" height="24" rx="4" fill="#3B59F4"/>
<rect y="50" width="5" height="18" rx="2.5" fill="#3B59F4"/>
<rect width="18" height="24" rx="4" transform="matrix(-1 0 0 1 112 47)" fill="#3B59F4"/>
<rect width="5" height="18" rx="2.5" transform="matrix(-1 0 0 1 119 50)" fill="#3B59F4"/>
<rect x="24.4508" y="98.6609" width="18" height="24" rx="4" transform="rotate(-60.4644 24.4508 98.6609)" fill="#3B59F4"/>
<rect x="23.6102" y="106.23" width="5" height="18" rx="2.5" transform="rotate(-60.4644 23.6102 106.23)" fill="#3B59F4"/>
<rect width="18" height="24" rx="4" transform="matrix(-0.55052 -0.834822 -0.834822 0.55052 95.9451 96.0269)" fill="#3B59F4"/>
<rect width="5" height="18" rx="2.5" transform="matrix(-0.55052 -0.834822 -0.834822 0.55052 97.2943 103.522)" fill="#3B59F4"/>
<rect x="41.2846" y="8.06213" width="18" height="24" rx="4" transform="rotate(60 41.2846 8.06213)" fill="#3B59F4"/>
<rect x="35.1865" y="3.5" width="5" height="18" rx="2.5" transform="rotate(60 35.1865 3.5)" fill="#3B59F4"/>
<rect width="18" height="24" rx="4" transform="matrix(-0.5 0.866025 0.866025 0.5 73 6.06213)" fill="#3B59F4"/>
<rect width="5" height="18" rx="2.5" transform="matrix(-0.5 0.866025 0.866025 0.5 79.0981 1.5)" fill="#3B59F4"/>
</svg>
